<mxfile host="app.diagrams.net" modified="2022-12-07T18:07:23.337Z" agent="5.0 (Windows NT 10.0; Win64; x64) AppleWebKit/537.36 (KHTML, like Gecko) Chrome/108.0.0.0 Safari/537.36 Edg/108.0.1462.42" version="20.6.0" etag="cxfIz5wtXVriCrlezjOO" type="github">&#xa;    <diagram id="FCJ-OVs_gFsOPFHM9QGP" name="Page-1">&#xa;        <mxGraphModel dx="1460" dy="346" grid="1" gridSize="10" guides="1" tooltips="1" connect="1" arrows="1" fold="1" page="1" pageScale="1" pageWidth="827" pageHeight="1169" math="0" shadow="0">&#xa;            <root>&#xa;                <mxCell id="0"/>&#xa;                <mxCell id="1" parent="0"/>&#xa;                <mxCell id="V-v0umeBwk4va9q0CDBw-4" value="cars" style="shape=table;startSize=30;container=1;collapsible=1;childLayout=tableLayout;fixedRows=1;rowLines=0;fontStyle=1;align=center;resizeLast=1;fillColor=#f8cecc;strokeColor=#000000;aspect=fixed;movable=1;resizable=1;rotatable=1;deletable=1;editable=1;connectable=1;" parent="1" vertex="1">&#xa;                    <mxGeometry x="-530" y="220" width="202" height="210" as="geometry"/>&#xa;                </mxCell>&#xa;                <mxCell id="V-v0umeBwk4va9q0CDBw-5" value="" style="shape=partialRectangle;collapsible=0;dropTarget=0;pointerEvents=0;fillColor=none;points=[[0,0.5],[1,0.5]];portConstraint=eastwest;top=0;left=0;right=0;bottom=1;" parent="V-v0umeBwk4va9q0CDBw-4" vertex="1">&#xa;                    <mxGeometry y="30" width="202" height="30" as="geometry"/>&#xa;                </mxCell>&#xa;                <mxCell id="V-v0umeBwk4va9q0CDBw-6" value="PK" style="shape=partialRectangle;overflow=hidden;connectable=0;fillColor=none;top=0;left=0;bottom=0;right=0;fontStyle=1;" parent="V-v0umeBwk4va9q0CDBw-5" vertex="1">&#xa;                    <mxGeometry width="30" height="30" as="geometry">&#xa;                        <mxRectangle width="30" height="30" as="alternateBounds"/>&#xa;                    </mxGeometry>&#xa;                </mxCell>&#xa;                <mxCell id="V-v0umeBwk4va9q0CDBw-7" value="id_car" style="shape=partialRectangle;overflow=hidden;connectable=0;fillColor=none;top=0;left=0;bottom=0;right=0;align=left;spacingLeft=6;fontStyle=5;" parent="V-v0umeBwk4va9q0CDBw-5" vertex="1">&#xa;                    <mxGeometry x="30" width="172" height="30" as="geometry">&#xa;                        <mxRectangle width="172" height="30" as="alternateBounds"/>&#xa;                    </mxGeometry>&#xa;                </mxCell>&#xa;                <mxCell id="V-v0umeBwk4va9q0CDBw-8" value="" style="shape=partialRectangle;collapsible=0;dropTarget=0;pointerEvents=0;fillColor=none;points=[[0,0.5],[1,0.5]];portConstraint=eastwest;top=0;left=0;right=0;bottom=0;" parent="V-v0umeBwk4va9q0CDBw-4" vertex="1">&#xa;                    <mxGeometry y="60" width="202" height="30" as="geometry"/>&#xa;                </mxCell>&#xa;                <mxCell id="V-v0umeBwk4va9q0CDBw-9" value="FK" style="shape=partialRectangle;overflow=hidden;connectable=0;fillColor=none;top=0;left=0;bottom=0;right=0;" parent="V-v0umeBwk4va9q0CDBw-8" vertex="1">&#xa;                    <mxGeometry width="30" height="30" as="geometry">&#xa;                        <mxRectangle width="30" height="30" as="alternateBounds"/>&#xa;                    </mxGeometry>&#xa;                </mxCell>&#xa;                <mxCell id="V-v0umeBwk4va9q0CDBw-10" value="id_model" style="shape=partialRectangle;overflow=hidden;connectable=0;fillColor=none;top=0;left=0;bottom=0;right=0;align=left;spacingLeft=6;fontStyle=4" parent="V-v0umeBwk4va9q0CDBw-8" vertex="1">&#xa;                    <mxGeometry x="30" width="172" height="30" as="geometry">&#xa;                        <mxRectangle width="172" height="30" as="alternateBounds"/>&#xa;                    </mxGeometry>&#xa;                </mxCell>&#xa;                <mxCell id="V-v0umeBwk4va9q0CDBw-23" value="" style="shape=partialRectangle;collapsible=0;dropTarget=0;pointerEvents=0;fillColor=none;points=[[0,0.5],[1,0.5]];portConstraint=eastwest;top=0;left=0;right=0;bottom=0;" parent="V-v0umeBwk4va9q0CDBw-4" vertex="1">&#xa;                    <mxGeometry y="90" width="202" height="30" as="geometry"/>&#xa;                </mxCell>&#xa;                <mxCell id="V-v0umeBwk4va9q0CDBw-24" value="FK" style="shape=partialRectangle;overflow=hidden;connectable=0;fillColor=none;top=0;left=0;bottom=0;right=0;" parent="V-v0umeBwk4va9q0CDBw-23" vertex="1">&#xa;                    <mxGeometry width="30" height="30" as="geometry">&#xa;                        <mxRectangle width="30" height="30" as="alternateBounds"/>&#xa;                    </mxGeometry>&#xa;                </mxCell>&#xa;                <mxCell id="V-v0umeBwk4va9q0CDBw-25" value="id_color" style="shape=partialRectangle;overflow=hidden;connectable=0;fillColor=none;top=0;left=0;bottom=0;right=0;align=left;spacingLeft=6;fontStyle=4" parent="V-v0umeBwk4va9q0CDBw-23" vertex="1">&#xa;                    <mxGeometry x="30" width="172" height="30" as="geometry">&#xa;                        <mxRectangle width="172" height="30" as="alternateBounds"/>&#xa;                    </mxGeometry>&#xa;                </mxCell>&#xa;                <mxCell id="V-v0umeBwk4va9q0CDBw-14" value="" style="shape=partialRectangle;collapsible=0;dropTarget=0;pointerEvents=0;fillColor=none;points=[[0,0.5],[1,0.5]];portConstraint=eastwest;top=0;left=0;right=0;bottom=0;fontStyle=4" parent="V-v0umeBwk4va9q0CDBw-4" vertex="1">&#xa;                    <mxGeometry y="120" width="202" height="30" as="geometry"/>&#xa;                </mxCell>&#xa;                <mxCell id="V-v0umeBwk4va9q0CDBw-15" value="" style="shape=partialRectangle;overflow=hidden;connectable=0;fillColor=none;top=0;left=0;bottom=0;right=0;" parent="V-v0umeBwk4va9q0CDBw-14" vertex="1">&#xa;                    <mxGeometry width="30" height="30" as="geometry">&#xa;                        <mxRectangle width="30" height="30" as="alternateBounds"/>&#xa;                    </mxGeometry>&#xa;                </mxCell>&#xa;                <mxCell id="V-v0umeBwk4va9q0CDBw-16" value="date_of_purchase" style="shape=partialRectangle;overflow=hidden;connectable=0;fillColor=none;top=0;left=0;bottom=0;right=0;align=left;spacingLeft=6;fontStyle=4" parent="V-v0umeBwk4va9q0CDBw-14" vertex="1">&#xa;                    <mxGeometry x="30" width="172" height="30" as="geometry">&#xa;                        <mxRectangle width="172" height="30" as="alternateBounds"/>&#xa;                    </mxGeometry>&#xa;                </mxCell>&#xa;                <mxCell id="V-v0umeBwk4va9q0CDBw-20" value="" style="shape=partialRectangle;collapsible=0;dropTarget=0;pointerEvents=0;fillColor=none;points=[[0,0.5],[1,0.5]];portConstraint=eastwest;top=0;left=0;right=0;bottom=0;" parent="V-v0umeBwk4va9q0CDBw-4" vertex="1">&#xa;                    <mxGeometry y="150" width="202" height="30" as="geometry"/>&#xa;                </mxCell>&#xa;                <mxCell id="V-v0umeBwk4va9q0CDBw-21" value="" style="shape=partialRectangle;overflow=hidden;connectable=0;fillColor=none;top=0;left=0;bottom=0;right=0;" parent="V-v0umeBwk4va9q0CDBw-20" vertex="1">&#xa;                    <mxGeometry width="30" height="30" as="geometry">&#xa;                        <mxRectangle width="30" height="30" as="alternateBounds"/>&#xa;                    </mxGeometry>&#xa;                </mxCell>&#xa;                <mxCell id="V-v0umeBwk4va9q0CDBw-22" value="license_plate" style="shape=partialRectangle;overflow=hidden;connectable=0;fillColor=none;top=0;left=0;bottom=0;right=0;align=left;spacingLeft=6;fontStyle=4" parent="V-v0umeBwk4va9q0CDBw-20" vertex="1">&#xa;                    <mxGeometry x="30" width="172" height="30" as="geometry">&#xa;                        <mxRectangle width="172" height="30" as="alternateBounds"/>&#xa;                    </mxGeometry>&#xa;                </mxCell>&#xa;                <mxCell id="V-v0umeBwk4va9q0CDBw-26" value="" style="shape=partialRectangle;collapsible=0;dropTarget=0;pointerEvents=0;fillColor=none;points=[[0,0.5],[1,0.5]];portConstraint=eastwest;top=0;left=0;right=0;bottom=0;" parent="V-v0umeBwk4va9q0CDBw-4" vertex="1">&#xa;                    <mxGeometry y="180" width="202" height="30" as="geometry"/>&#xa;                </mxCell>&#xa;                <mxCell id="V-v0umeBwk4va9q0CDBw-27" value="" style="shape=partialRectangle;overflow=hidden;connectable=0;fillColor=none;top=0;left=0;bottom=0;right=0;" parent="V-v0umeBwk4va9q0CDBw-26" vertex="1">&#xa;                    <mxGeometry width="30" height="30" as="geometry">&#xa;                        <mxRectangle width="30" height="30" as="alternateBounds"/>&#xa;                    </mxGeometry>&#xa;                </mxCell>&#xa;                <mxCell id="V-v0umeBwk4va9q0CDBw-28" value="km_total" style="shape=partialRectangle;overflow=hidden;connectable=0;fillColor=none;top=0;left=0;bottom=0;right=0;align=left;spacingLeft=6;fontStyle=4" parent="V-v0umeBwk4va9q0CDBw-26" vertex="1">&#xa;                    <mxGeometry x="30" width="172" height="30" as="geometry">&#xa;                        <mxRectangle width="172" height="30" as="alternateBounds"/>&#xa;                    </mxGeometry>&#xa;                </mxCell>&#xa;                <mxCell id="igEpRSdW23LCRPxDGEHG-4" value="" style="endArrow=none;html=1;rounded=0;exitX=0.007;exitY=-0.113;exitDx=0;exitDy=0;exitPerimeter=0;entryX=1.015;entryY=-0.06;entryDx=0;entryDy=0;entryPerimeter=0;" parent="V-v0umeBwk4va9q0CDBw-4" source="V-v0umeBwk4va9q0CDBw-14" target="V-v0umeBwk4va9q0CDBw-14" edge="1">&#xa;                    <mxGeometry width="50" height="50" relative="1" as="geometry">&#xa;                        <mxPoint x="210" y="230" as="sourcePoint"/>&#xa;                        <mxPoint x="260" y="180" as="targetPoint"/>&#xa;                    </mxGeometry>&#xa;                </mxCell>&#xa;                <mxCell id="igEpRSdW23LCRPxDGEHG-7" value="models" style="shape=table;startSize=30;container=1;collapsible=1;childLayout=tableLayout;fixedRows=1;rowLines=0;fontStyle=1;align=center;resizeLast=1;fillColor=#CCCCFF;strokeColor=#000000;aspect=fixed;movable=1;resizable=1;rotatable=1;deletable=1;editable=1;connectable=1;" parent="1" vertex="1">&#xa;                    <mxGeometry x="-810" y="280" width="202" height="120" as="geometry"/>&#xa;                </mxCell>&#xa;                <mxCell id="igEpRSdW23LCRPxDGEHG-8" value="" style="shape=partialRectangle;collapsible=0;dropTarget=0;pointerEvents=0;fillColor=none;points=[[0,0.5],[1,0.5]];portConstraint=eastwest;top=0;left=0;right=0;bottom=1;" parent="igEpRSdW23LCRPxDGEHG-7" vertex="1">&#xa;                    <mxGeometry y="30" width="202" height="30" as="geometry"/>&#xa;                </mxCell>&#xa;                <mxCell id="igEpRSdW23LCRPxDGEHG-9" value="PK" style="shape=partialRectangle;overflow=hidden;connectable=0;fillColor=none;top=0;left=0;bottom=0;right=0;fontStyle=1;" parent="igEpRSdW23LCRPxDGEHG-8" vertex="1">&#xa;                    <mxGeometry width="30" height="30" as="geometry">&#xa;                        <mxRectangle width="30" height="30" as="alternateBounds"/>&#xa;                    </mxGeometry>&#xa;                </mxCell>&#xa;                <mxCell id="igEpRSdW23LCRPxDGEHG-10" value="id_model" style="shape=partialRectangle;overflow=hidden;connectable=0;fillColor=none;top=0;left=0;bottom=0;right=0;align=left;spacingLeft=6;fontStyle=5;" parent="igEpRSdW23LCRPxDGEHG-8" vertex="1">&#xa;                    <mxGeometry x="30" width="172" height="30" as="geometry">&#xa;                        <mxRectangle width="172" height="30" as="alternateBounds"/>&#xa;                    </mxGeometry>&#xa;                </mxCell>&#xa;                <mxCell id="igEpRSdW23LCRPxDGEHG-11" value="" style="shape=partialRectangle;collapsible=0;dropTarget=0;pointerEvents=0;fillColor=none;points=[[0,0.5],[1,0.5]];portConstraint=eastwest;top=0;left=0;right=0;bottom=0;" parent="igEpRSdW23LCRPxDGEHG-7" vertex="1">&#xa;                    <mxGeometry y="60" width="202" height="30" as="geometry"/>&#xa;                </mxCell>&#xa;                <mxCell id="igEpRSdW23LCRPxDGEHG-12" value="FK" style="shape=partialRectangle;overflow=hidden;connectable=0;fillColor=#FFFFFF;top=0;left=0;bottom=0;right=0;" parent="igEpRSdW23LCRPxDGEHG-11" vertex="1">&#xa;                    <mxGeometry width="30" height="30" as="geometry">&#xa;                        <mxRectangle width="30" height="30" as="alternateBounds"/>&#xa;                    </mxGeometry>&#xa;                </mxCell>&#xa;                <mxCell id="igEpRSdW23LCRPxDGEHG-13" value="id_brand" style="shape=partialRectangle;overflow=hidden;connectable=0;fillColor=none;top=0;left=0;bottom=0;right=0;align=left;spacingLeft=6;fontStyle=4" parent="igEpRSdW23LCRPxDGEHG-11" vertex="1">&#xa;                    <mxGeometry x="30" width="172" height="30" as="geometry">&#xa;                        <mxRectangle width="172" height="30" as="alternateBounds"/>&#xa;                    </mxGeometry>&#xa;                </mxCell>&#xa;                <mxCell id="igEpRSdW23LCRPxDGEHG-14" value="" style="shape=partialRectangle;collapsible=0;dropTarget=0;pointerEvents=0;fillColor=none;points=[[0,0.5],[1,0.5]];portConstraint=eastwest;top=0;left=0;right=0;bottom=0;" parent="igEpRSdW23LCRPxDGEHG-7" vertex="1">&#xa;                    <mxGeometry y="90" width="202" height="30" as="geometry"/>&#xa;                </mxCell>&#xa;                <mxCell id="igEpRSdW23LCRPxDGEHG-15" value="" style="shape=partialRectangle;overflow=hidden;connectable=0;fillColor=none;top=0;left=0;bottom=0;right=0;" parent="igEpRSdW23LCRPxDGEHG-14" vertex="1">&#xa;                    <mxGeometry width="30" height="30" as="geometry">&#xa;                        <mxRectangle width="30" height="30" as="alternateBounds"/>&#xa;                    </mxGeometry>&#xa;                </mxCell>&#xa;                <mxCell id="igEpRSdW23LCRPxDGEHG-16" value="model" style="shape=partialRectangle;overflow=hidden;connectable=0;fillColor=none;top=0;left=0;bottom=0;right=0;align=left;spacingLeft=6;fontStyle=4" parent="igEpRSdW23LCRPxDGEHG-14" vertex="1">&#xa;                    <mxGeometry x="30" width="172" height="30" as="geometry">&#xa;                        <mxRectangle width="172" height="30" as="alternateBounds"/>&#xa;                    </mxGeometry>&#xa;                </mxCell>&#xa;                <mxCell id="xH1HKrCOgvH4H9pcXVL0-34" value="" style="endArrow=none;html=1;rounded=0;fontSize=15;exitX=-0.005;exitY=0.033;exitDx=0;exitDy=0;exitPerimeter=0;entryX=0.985;entryY=1.067;entryDx=0;entryDy=0;entryPerimeter=0;" parent="igEpRSdW23LCRPxDGEHG-7" source="igEpRSdW23LCRPxDGEHG-14" target="igEpRSdW23LCRPxDGEHG-11" edge="1">&#xa;                    <mxGeometry width="50" height="50" relative="1" as="geometry">&#xa;                        <mxPoint x="250" y="60" as="sourcePoint"/>&#xa;                        <mxPoint x="300" y="10" as="targetPoint"/>&#xa;                    </mxGeometry>&#xa;                </mxCell>&#xa;                <mxCell id="igEpRSdW23LCRPxDGEHG-33" value="insurances" style="shape=table;startSize=30;container=1;collapsible=1;childLayout=tableLayout;fixedRows=1;rowLines=0;fontStyle=1;align=center;resizeLast=1;fillColor=#CCCCFF;strokeColor=#000000;aspect=fixed;movable=1;resizable=1;rotatable=1;deletable=1;editable=1;connectable=1;" parent="1" vertex="1">&#xa;                    <mxGeometry x="-221" y="200" width="202" height="150" as="geometry"/>&#xa;                </mxCell>&#xa;                <mxCell id="igEpRSdW23LCRPxDGEHG-34" value="" style="shape=partialRectangle;collapsible=0;dropTarget=0;pointerEvents=0;fillColor=none;points=[[0,0.5],[1,0.5]];portConstraint=eastwest;top=0;left=0;right=0;bottom=1;" parent="igEpRSdW23LCRPxDGEHG-33" vertex="1">&#xa;                    <mxGeometry y="30" width="202" height="30" as="geometry"/>&#xa;                </mxCell>&#xa;                <mxCell id="igEpRSdW23LCRPxDGEHG-35" value="PK" style="shape=partialRectangle;overflow=hidden;connectable=0;fillColor=none;top=0;left=0;bottom=0;right=0;fontStyle=1;" parent="igEpRSdW23LCRPxDGEHG-34" vertex="1">&#xa;                    <mxGeometry width="30" height="30" as="geometry">&#xa;                        <mxRectangle width="30" height="30" as="alternateBounds"/>&#xa;                    </mxGeometry>&#xa;                </mxCell>&#xa;                <mxCell id="igEpRSdW23LCRPxDGEHG-36" value="id_insurance" style="shape=partialRectangle;overflow=hidden;connectable=0;fillColor=none;top=0;left=0;bottom=0;right=0;align=left;spacingLeft=6;fontStyle=5;" parent="igEpRSdW23LCRPxDGEHG-34" vertex="1">&#xa;                    <mxGeometry x="30" width="172" height="30" as="geometry">&#xa;                        <mxRectangle width="172" height="30" as="alternateBounds"/>&#xa;                    </mxGeometry>&#xa;                </mxCell>&#xa;                <mxCell id="o_L41wOgagDgVBr1aEYv-1" style="shape=partialRectangle;collapsible=0;dropTarget=0;pointerEvents=0;fillColor=none;points=[[0,0.5],[1,0.5]];portConstraint=eastwest;top=0;left=0;right=0;bottom=0;" parent="igEpRSdW23LCRPxDGEHG-33" vertex="1">&#xa;                    <mxGeometry y="60" width="202" height="30" as="geometry"/>&#xa;                </mxCell>&#xa;                <mxCell id="o_L41wOgagDgVBr1aEYv-2" value="FK" style="shape=partialRectangle;overflow=hidden;connectable=0;fillColor=none;top=0;left=0;bottom=0;right=0;" parent="o_L41wOgagDgVBr1aEYv-1" vertex="1">&#xa;                    <mxGeometry width="30" height="30" as="geometry">&#xa;                        <mxRectangle width="30" height="30" as="alternateBounds"/>&#xa;                    </mxGeometry>&#xa;                </mxCell>&#xa;                <mxCell id="o_L41wOgagDgVBr1aEYv-3" value="id_car" style="shape=partialRectangle;overflow=hidden;connectable=0;fillColor=none;top=0;left=0;bottom=0;right=0;align=left;spacingLeft=6;fontStyle=4" parent="o_L41wOgagDgVBr1aEYv-1" vertex="1">&#xa;                    <mxGeometry x="30" width="172" height="30" as="geometry">&#xa;                        <mxRectangle width="172" height="30" as="alternateBounds"/>&#xa;                    </mxGeometry>&#xa;                </mxCell>&#xa;                <mxCell id="igEpRSdW23LCRPxDGEHG-37" value="" style="shape=partialRectangle;collapsible=0;dropTarget=0;pointerEvents=0;fillColor=none;points=[[0,0.5],[1,0.5]];portConstraint=eastwest;top=0;left=0;right=0;bottom=0;" parent="igEpRSdW23LCRPxDGEHG-33" vertex="1">&#xa;                    <mxGeometry y="90" width="202" height="30" as="geometry"/>&#xa;                </mxCell>&#xa;                <mxCell id="igEpRSdW23LCRPxDGEHG-38" value="FK" style="shape=partialRectangle;overflow=hidden;connectable=0;fillColor=none;top=0;left=0;bottom=0;right=0;" parent="igEpRSdW23LCRPxDGEHG-37" vertex="1">&#xa;                    <mxGeometry width="30" height="30" as="geometry">&#xa;                        <mxRectangle width="30" height="30" as="alternateBounds"/>&#xa;                    </mxGeometry>&#xa;                </mxCell>&#xa;                <mxCell id="igEpRSdW23LCRPxDGEHG-39" value="id_insurance_company" style="shape=partialRectangle;overflow=hidden;connectable=0;fillColor=none;top=0;left=0;bottom=0;right=0;align=left;spacingLeft=6;fontStyle=4" parent="igEpRSdW23LCRPxDGEHG-37" vertex="1">&#xa;                    <mxGeometry x="30" width="172" height="30" as="geometry">&#xa;                        <mxRectangle width="172" height="30" as="alternateBounds"/>&#xa;                    </mxGeometry>&#xa;                </mxCell>&#xa;                <mxCell id="o_L41wOgagDgVBr1aEYv-4" style="shape=partialRectangle;collapsible=0;dropTarget=0;pointerEvents=0;fillColor=none;points=[[0,0.5],[1,0.5]];portConstraint=eastwest;top=0;left=0;right=0;bottom=0;" parent="igEpRSdW23LCRPxDGEHG-33" vertex="1">&#xa;                    <mxGeometry y="120" width="202" height="30" as="geometry"/>&#xa;                </mxCell>&#xa;                <mxCell id="o_L41wOgagDgVBr1aEYv-5" style="shape=partialRectangle;overflow=hidden;connectable=0;fillColor=none;top=0;left=0;bottom=0;right=0;" parent="o_L41wOgagDgVBr1aEYv-4" vertex="1">&#xa;                    <mxGeometry width="30" height="30" as="geometry">&#xa;                        <mxRectangle width="30" height="30" as="alternateBounds"/>&#xa;                    </mxGeometry>&#xa;                </mxCell>&#xa;                <mxCell id="o_L41wOgagDgVBr1aEYv-6" value="insurance_number" style="shape=partialRectangle;overflow=hidden;connectable=0;fillColor=none;top=0;left=0;bottom=0;right=0;align=left;spacingLeft=6;fontStyle=4" parent="o_L41wOgagDgVBr1aEYv-4" vertex="1">&#xa;                    <mxGeometry x="30" width="172" height="30" as="geometry">&#xa;                        <mxRectangle width="172" height="30" as="alternateBounds"/>&#xa;                    </mxGeometry>&#xa;                </mxCell>&#xa;                <mxCell id="igEpRSdW23LCRPxDGEHG-59" value="1:n" style="endArrow=classic;html=1;rounded=0;entryX=1;entryY=0.5;entryDx=0;entryDy=0;exitX=0;exitY=0.5;exitDx=0;exitDy=0;fontSize=15;" parent="1" source="V-v0umeBwk4va9q0CDBw-23" target="igEpRSdW23LCRPxDGEHG-8" edge="1">&#xa;                    <mxGeometry width="50" height="50" relative="1" as="geometry">&#xa;                        <mxPoint x="-500" y="161" as="sourcePoint"/>&#xa;                        <mxPoint x="-370" y="210" as="targetPoint"/>&#xa;                    </mxGeometry>&#xa;                </mxCell>&#xa;                <mxCell id="igEpRSdW23LCRPxDGEHG-77" value="inspections" style="shape=table;startSize=30;container=1;collapsible=1;childLayout=tableLayout;fixedRows=1;rowLines=0;fontStyle=1;align=center;resizeLast=1;fillColor=#CCCCFF;strokeColor=#000000;aspect=fixed;movable=1;resizable=1;rotatable=1;deletable=1;editable=1;connectable=1;" parent="1" vertex="1">&#xa;                    <mxGeometry x="-221" y="380" width="202" height="180" as="geometry"/>&#xa;                </mxCell>&#xa;                <mxCell id="igEpRSdW23LCRPxDGEHG-114" style="shape=partialRectangle;collapsible=0;dropTarget=0;pointerEvents=0;fillColor=none;points=[[0,0.5],[1,0.5]];portConstraint=eastwest;top=0;left=0;right=0;bottom=0;" parent="igEpRSdW23LCRPxDGEHG-77" vertex="1">&#xa;                    <mxGeometry y="30" width="202" height="30" as="geometry"/>&#xa;                </mxCell>&#xa;                <mxCell id="igEpRSdW23LCRPxDGEHG-115" value="PK" style="shape=partialRectangle;overflow=hidden;connectable=0;fillColor=#FFFFFF;top=0;left=0;bottom=0;right=0;fontStyle=1" parent="igEpRSdW23LCRPxDGEHG-114" vertex="1">&#xa;                    <mxGeometry width="50" height="30" as="geometry">&#xa;                        <mxRectangle width="50" height="30" as="alternateBounds"/>&#xa;                    </mxGeometry>&#xa;                </mxCell>&#xa;                <mxCell id="igEpRSdW23LCRPxDGEHG-116" value="inspection_date" style="shape=partialRectangle;overflow=hidden;connectable=0;fillColor=none;top=0;left=0;bottom=0;right=0;align=left;spacingLeft=6;fontStyle=5" parent="igEpRSdW23LCRPxDGEHG-114" vertex="1">&#xa;                    <mxGeometry x="50" width="152" height="30" as="geometry">&#xa;                        <mxRectangle width="152" height="30" as="alternateBounds"/>&#xa;                    </mxGeometry>&#xa;                </mxCell>&#xa;                <mxCell id="igEpRSdW23LCRPxDGEHG-81" value="" style="shape=partialRectangle;collapsible=0;dropTarget=0;pointerEvents=0;fillColor=none;points=[[0,0.5],[1,0.5]];portConstraint=eastwest;top=0;left=0;right=0;bottom=0;" parent="igEpRSdW23LCRPxDGEHG-77" vertex="1">&#xa;                    <mxGeometry y="60" width="202" height="30" as="geometry"/>&#xa;                </mxCell>&#xa;                <mxCell id="igEpRSdW23LCRPxDGEHG-82" value="PK, FK" style="shape=partialRectangle;overflow=hidden;connectable=0;fillColor=#FFFFFF;top=0;left=0;bottom=0;right=0;fontStyle=1" parent="igEpRSdW23LCRPxDGEHG-81" vertex="1">&#xa;                    <mxGeometry width="50" height="30" as="geometry">&#xa;                        <mxRectangle width="50" height="30" as="alternateBounds"/>&#xa;                    </mxGeometry>&#xa;                </mxCell>&#xa;                <mxCell id="igEpRSdW23LCRPxDGEHG-83" value="id_car" style="shape=partialRectangle;overflow=hidden;connectable=0;fillColor=none;top=0;left=0;bottom=0;right=0;align=left;spacingLeft=6;fontStyle=5" parent="igEpRSdW23LCRPxDGEHG-81" vertex="1">&#xa;                    <mxGeometry x="50" width="152" height="30" as="geometry">&#xa;                        <mxRectangle width="152" height="30" as="alternateBounds"/>&#xa;                    </mxGeometry>&#xa;                </mxCell>&#xa;                <mxCell id="xH1HKrCOgvH4H9pcXVL0-15" style="shape=partialRectangle;collapsible=0;dropTarget=0;pointerEvents=0;fillColor=none;points=[[0,0.5],[1,0.5]];portConstraint=eastwest;top=0;left=0;right=0;bottom=0;fontStyle=4" parent="igEpRSdW23LCRPxDGEHG-77" vertex="1">&#xa;                    <mxGeometry y="90" width="202" height="30" as="geometry"/>&#xa;                </mxCell>&#xa;                <mxCell id="xH1HKrCOgvH4H9pcXVL0-16" value="FK" style="shape=partialRectangle;overflow=hidden;connectable=0;fillColor=none;top=0;left=0;bottom=0;right=0;" parent="xH1HKrCOgvH4H9pcXVL0-15" vertex="1">&#xa;                    <mxGeometry width="50" height="30" as="geometry">&#xa;                        <mxRectangle width="50" height="30" as="alternateBounds"/>&#xa;                    </mxGeometry>&#xa;                </mxCell>&#xa;                <mxCell id="xH1HKrCOgvH4H9pcXVL0-17" value="id_currency" style="shape=partialRectangle;overflow=hidden;connectable=0;fillColor=none;top=0;left=0;bottom=0;right=0;align=left;spacingLeft=6;fontStyle=4" parent="xH1HKrCOgvH4H9pcXVL0-15" vertex="1">&#xa;                    <mxGeometry x="50" width="152" height="30" as="geometry">&#xa;                        <mxRectangle width="152" height="30" as="alternateBounds"/>&#xa;                    </mxGeometry>&#xa;                </mxCell>&#xa;                <mxCell id="igEpRSdW23LCRPxDGEHG-84" value="" style="shape=partialRectangle;collapsible=0;dropTarget=0;pointerEvents=0;fillColor=none;points=[[0,0.5],[1,0.5]];portConstraint=eastwest;top=0;left=0;right=0;bottom=0;" parent="igEpRSdW23LCRPxDGEHG-77" vertex="1">&#xa;                    <mxGeometry y="120" width="202" height="30" as="geometry"/>&#xa;                </mxCell>&#xa;                <mxCell id="igEpRSdW23LCRPxDGEHG-85" value="" style="shape=partialRectangle;overflow=hidden;connectable=0;fillColor=none;top=0;left=0;bottom=0;right=0;" parent="igEpRSdW23LCRPxDGEHG-84" vertex="1">&#xa;                    <mxGeometry width="50" height="30" as="geometry">&#xa;                        <mxRectangle width="50" height="30" as="alternateBounds"/>&#xa;                    </mxGeometry>&#xa;                </mxCell>&#xa;                <mxCell id="igEpRSdW23LCRPxDGEHG-86" value="km" style="shape=partialRectangle;overflow=hidden;connectable=0;fillColor=none;top=0;left=0;bottom=0;right=0;align=left;spacingLeft=6;fontStyle=4" parent="igEpRSdW23LCRPxDGEHG-84" vertex="1">&#xa;                    <mxGeometry x="50" width="152" height="30" as="geometry">&#xa;                        <mxRectangle width="152" height="30" as="alternateBounds"/>&#xa;                    </mxGeometry>&#xa;                </mxCell>&#xa;                <mxCell id="igEpRSdW23LCRPxDGEHG-87" value="" style="shape=partialRectangle;collapsible=0;dropTarget=0;pointerEvents=0;fillColor=none;points=[[0,0.5],[1,0.5]];portConstraint=eastwest;top=0;left=0;right=0;bottom=0;fontStyle=4" parent="igEpRSdW23LCRPxDGEHG-77" vertex="1">&#xa;                    <mxGeometry y="150" width="202" height="30" as="geometry"/>&#xa;                </mxCell>&#xa;                <mxCell id="igEpRSdW23LCRPxDGEHG-88" value="" style="shape=partialRectangle;overflow=hidden;connectable=0;fillColor=none;top=0;left=0;bottom=0;right=0;" parent="igEpRSdW23LCRPxDGEHG-87" vertex="1">&#xa;                    <mxGeometry width="50" height="30" as="geometry">&#xa;                        <mxRectangle width="50" height="30" as="alternateBounds"/>&#xa;                    </mxGeometry>&#xa;                </mxCell>&#xa;                <mxCell id="igEpRSdW23LCRPxDGEHG-89" value="price" style="shape=partialRectangle;overflow=hidden;connectable=0;fillColor=none;top=0;left=0;bottom=0;right=0;align=left;spacingLeft=6;fontStyle=4" parent="igEpRSdW23LCRPxDGEHG-87" vertex="1">&#xa;                    <mxGeometry x="50" width="152" height="30" as="geometry">&#xa;                        <mxRectangle width="152" height="30" as="alternateBounds"/>&#xa;                    </mxGeometry>&#xa;                </mxCell>&#xa;                <mxCell id="igEpRSdW23LCRPxDGEHG-118" value="" style="endArrow=none;html=1;rounded=0;exitX=-0.005;exitY=-0.133;exitDx=0;exitDy=0;exitPerimeter=0;entryX=1.015;entryY=-0.133;entryDx=0;entryDy=0;entryPerimeter=0;" parent="igEpRSdW23LCRPxDGEHG-77" edge="1">&#xa;                    <mxGeometry width="50" height="50" relative="1" as="geometry">&#xa;                        <mxPoint x="-1.0100000000002183" y="116.00999999999999" as="sourcePoint"/>&#xa;                        <mxPoint x="205.02999999999975" y="116.00999999999999" as="targetPoint"/>&#xa;                        <Array as="points"/>&#xa;                    </mxGeometry>&#xa;                </mxCell>&#xa;                <mxCell id="xH1HKrCOgvH4H9pcXVL0-18" value="" style="endArrow=none;html=1;rounded=0;exitX=-0.005;exitY=-0.067;exitDx=0;exitDy=0;exitPerimeter=0;" parent="igEpRSdW23LCRPxDGEHG-77" source="xH1HKrCOgvH4H9pcXVL0-15" edge="1">&#xa;                    <mxGeometry width="50" height="50" relative="1" as="geometry">&#xa;                        <mxPoint x="-30" y="125" as="sourcePoint"/>&#xa;                        <mxPoint x="200" y="88" as="targetPoint"/>&#xa;                    </mxGeometry>&#xa;                </mxCell>&#xa;                <mxCell id="igEpRSdW23LCRPxDGEHG-107" value="n:1" style="endArrow=classic;html=1;rounded=0;fontSize=15;exitX=0.188;exitY=0.933;exitDx=0;exitDy=0;exitPerimeter=0;entryX=0.48;entryY=0;entryDx=0;entryDy=0;entryPerimeter=0;" parent="1" source="igEpRSdW23LCRPxDGEHG-87" target="igEpRSdW23LCRPxDGEHG-91" edge="1">&#xa;                    <mxGeometry width="50" height="50" relative="1" as="geometry">&#xa;                        <mxPoint x="-300" y="470" as="sourcePoint"/>&#xa;                        <mxPoint x="-183" y="610" as="targetPoint"/>&#xa;                    </mxGeometry>&#xa;                </mxCell>&#xa;                <mxCell id="igEpRSdW23LCRPxDGEHG-91" value="currencies" style="shape=table;startSize=30;container=1;collapsible=1;childLayout=tableLayout;fixedRows=1;rowLines=0;fontStyle=1;align=center;resizeLast=1;fillColor=#FFB570;strokeColor=#000000;aspect=fixed;movable=1;resizable=1;rotatable=1;deletable=1;editable=1;connectable=1;" parent="1" vertex="1">&#xa;                    <mxGeometry x="-280" y="620" width="202" height="120" as="geometry"/>&#xa;                </mxCell>&#xa;                <mxCell id="igEpRSdW23LCRPxDGEHG-92" value="" style="shape=partialRectangle;collapsible=0;dropTarget=0;pointerEvents=0;fillColor=none;points=[[0,0.5],[1,0.5]];portConstraint=eastwest;top=0;left=0;right=0;bottom=1;" parent="igEpRSdW23LCRPxDGEHG-91" vertex="1">&#xa;                    <mxGeometry y="30" width="202" height="30" as="geometry"/>&#xa;                </mxCell>&#xa;                <mxCell id="igEpRSdW23LCRPxDGEHG-93" value="PK" style="shape=partialRectangle;overflow=hidden;connectable=0;fillColor=none;top=0;left=0;bottom=0;right=0;fontStyle=1;" parent="igEpRSdW23LCRPxDGEHG-92" vertex="1">&#xa;                    <mxGeometry width="30" height="30" as="geometry">&#xa;                        <mxRectangle width="30" height="30" as="alternateBounds"/>&#xa;                    </mxGeometry>&#xa;                </mxCell>&#xa;                <mxCell id="igEpRSdW23LCRPxDGEHG-94" value="id_currency" style="shape=partialRectangle;overflow=hidden;connectable=0;fillColor=none;top=0;left=0;bottom=0;right=0;align=left;spacingLeft=6;fontStyle=5;" parent="igEpRSdW23LCRPxDGEHG-92" vertex="1">&#xa;                    <mxGeometry x="30" width="172" height="30" as="geometry">&#xa;                        <mxRectangle width="172" height="30" as="alternateBounds"/>&#xa;                    </mxGeometry>&#xa;                </mxCell>&#xa;                <mxCell id="igEpRSdW23LCRPxDGEHG-101" style="shape=partialRectangle;collapsible=0;dropTarget=0;pointerEvents=0;fillColor=none;points=[[0,0.5],[1,0.5]];portConstraint=eastwest;top=0;left=0;right=0;bottom=0;" parent="igEpRSdW23LCRPxDGEHG-91" vertex="1">&#xa;                    <mxGeometry y="60" width="202" height="30" as="geometry"/>&#xa;                </mxCell>&#xa;                <mxCell id="igEpRSdW23LCRPxDGEHG-102" style="shape=partialRectangle;overflow=hidden;connectable=0;fillColor=none;top=0;left=0;bottom=0;right=0;" parent="igEpRSdW23LCRPxDGEHG-101" vertex="1">&#xa;                    <mxGeometry width="30" height="30" as="geometry">&#xa;                        <mxRectangle width="30" height="30" as="alternateBounds"/>&#xa;                    </mxGeometry>&#xa;                </mxCell>&#xa;                <mxCell id="igEpRSdW23LCRPxDGEHG-103" value="currency" style="shape=partialRectangle;overflow=hidden;connectable=0;fillColor=none;top=0;left=0;bottom=0;right=0;align=left;spacingLeft=6;fontStyle=4" parent="igEpRSdW23LCRPxDGEHG-101" vertex="1">&#xa;                    <mxGeometry x="30" width="172" height="30" as="geometry">&#xa;                        <mxRectangle width="172" height="30" as="alternateBounds"/>&#xa;                    </mxGeometry>&#xa;                </mxCell>&#xa;                <mxCell id="igEpRSdW23LCRPxDGEHG-95" value="" style="shape=partialRectangle;collapsible=0;dropTarget=0;pointerEvents=0;fillColor=none;points=[[0,0.5],[1,0.5]];portConstraint=eastwest;top=0;left=0;right=0;bottom=0;" parent="igEpRSdW23LCRPxDGEHG-91" vertex="1">&#xa;                    <mxGeometry y="90" width="202" height="30" as="geometry"/>&#xa;                </mxCell>&#xa;                <mxCell id="igEpRSdW23LCRPxDGEHG-96" value="" style="shape=partialRectangle;overflow=hidden;connectable=0;fillColor=none;top=0;left=0;bottom=0;right=0;" parent="igEpRSdW23LCRPxDGEHG-95" vertex="1">&#xa;                    <mxGeometry width="30" height="30" as="geometry">&#xa;                        <mxRectangle width="30" height="30" as="alternateBounds"/>&#xa;                    </mxGeometry>&#xa;                </mxCell>&#xa;                <mxCell id="igEpRSdW23LCRPxDGEHG-97" value="region" style="shape=partialRectangle;overflow=hidden;connectable=0;fillColor=none;top=0;left=0;bottom=0;right=0;align=left;spacingLeft=6;fontStyle=0" parent="igEpRSdW23LCRPxDGEHG-95" vertex="1">&#xa;                    <mxGeometry x="30" width="172" height="30" as="geometry">&#xa;                        <mxRectangle width="172" height="30" as="alternateBounds"/>&#xa;                    </mxGeometry>&#xa;                </mxCell>&#xa;                <mxCell id="igEpRSdW23LCRPxDGEHG-90" value="1:n" style="endArrow=classic;html=1;rounded=0;fontSize=15;" parent="1" edge="1">&#xa;                    <mxGeometry width="50" height="50" relative="1" as="geometry">&#xa;                        <mxPoint x="-220" y="400" as="sourcePoint"/>&#xa;                        <mxPoint x="-330" y="400" as="targetPoint"/>&#xa;                    </mxGeometry>&#xa;                </mxCell>&#xa;                <mxCell id="xH1HKrCOgvH4H9pcXVL0-1" value="colors" style="shape=table;startSize=30;container=1;collapsible=1;childLayout=tableLayout;fixedRows=1;rowLines=0;fontStyle=1;align=center;resizeLast=1;fillColor=#CCCCFF;strokeColor=#000000;aspect=fixed;movable=1;resizable=1;rotatable=1;deletable=1;editable=1;connectable=1;" parent="1" vertex="1">&#xa;                    <mxGeometry x="-640" y="570" width="202" height="90" as="geometry"/>&#xa;                </mxCell>&#xa;                <mxCell id="xH1HKrCOgvH4H9pcXVL0-2" value="" style="shape=partialRectangle;collapsible=0;dropTarget=0;pointerEvents=0;fillColor=none;points=[[0,0.5],[1,0.5]];portConstraint=eastwest;top=0;left=0;right=0;bottom=1;" parent="xH1HKrCOgvH4H9pcXVL0-1" vertex="1">&#xa;                    <mxGeometry y="30" width="202" height="30" as="geometry"/>&#xa;                </mxCell>&#xa;                <mxCell id="xH1HKrCOgvH4H9pcXVL0-3" value="PK" style="shape=partialRectangle;overflow=hidden;connectable=0;fillColor=none;top=0;left=0;bottom=0;right=0;fontStyle=1;" parent="xH1HKrCOgvH4H9pcXVL0-2" vertex="1">&#xa;                    <mxGeometry width="30" height="30" as="geometry">&#xa;                        <mxRectangle width="30" height="30" as="alternateBounds"/>&#xa;                    </mxGeometry>&#xa;                </mxCell>&#xa;                <mxCell id="xH1HKrCOgvH4H9pcXVL0-4" value="id_color" style="shape=partialRectangle;overflow=hidden;connectable=0;fillColor=none;top=0;left=0;bottom=0;right=0;align=left;spacingLeft=6;fontStyle=5;" parent="xH1HKrCOgvH4H9pcXVL0-2" vertex="1">&#xa;                    <mxGeometry x="30" width="172" height="30" as="geometry">&#xa;                        <mxRectangle width="172" height="30" as="alternateBounds"/>&#xa;                    </mxGeometry>&#xa;                </mxCell>&#xa;                <mxCell id="xH1HKrCOgvH4H9pcXVL0-5" value="" style="shape=partialRectangle;collapsible=0;dropTarget=0;pointerEvents=0;fillColor=none;points=[[0,0.5],[1,0.5]];portConstraint=eastwest;top=0;left=0;right=0;bottom=0;" parent="xH1HKrCOgvH4H9pcXVL0-1" vertex="1">&#xa;                    <mxGeometry y="60" width="202" height="30" as="geometry"/>&#xa;                </mxCell>&#xa;                <mxCell id="xH1HKrCOgvH4H9pcXVL0-6" value="" style="shape=partialRectangle;overflow=hidden;connectable=0;fillColor=#FFFFFF;top=0;left=0;bottom=0;right=0;" parent="xH1HKrCOgvH4H9pcXVL0-5" vertex="1">&#xa;                    <mxGeometry width="30" height="30" as="geometry">&#xa;                        <mxRectangle width="30" height="30" as="alternateBounds"/>&#xa;                    </mxGeometry>&#xa;                </mxCell>&#xa;                <mxCell id="xH1HKrCOgvH4H9pcXVL0-7" value="color" style="shape=partialRectangle;overflow=hidden;connectable=0;fillColor=none;top=0;left=0;bottom=0;right=0;align=left;spacingLeft=6;fontStyle=4" parent="xH1HKrCOgvH4H9pcXVL0-5" vertex="1">&#xa;                    <mxGeometry x="30" width="172" height="30" as="geometry">&#xa;                        <mxRectangle width="172" height="30" as="alternateBounds"/>&#xa;                    </mxGeometry>&#xa;                </mxCell>&#xa;                <mxCell id="xH1HKrCOgvH4H9pcXVL0-20" value="1:n" style="endArrow=classic;html=1;rounded=0;fontSize=15;entryX=0.594;entryY=-0.022;entryDx=0;entryDy=0;entryPerimeter=0;exitX=0.05;exitY=1.1;exitDx=0;exitDy=0;exitPerimeter=0;" parent="1" source="V-v0umeBwk4va9q0CDBw-26" target="xH1HKrCOgvH4H9pcXVL0-1" edge="1">&#xa;                    <mxGeometry width="50" height="50" relative="1" as="geometry">&#xa;                        <mxPoint x="-530" y="390" as="sourcePoint"/>&#xa;                        <mxPoint x="-650" y="490" as="targetPoint"/>&#xa;                        <Array as="points"/>&#xa;                    </mxGeometry>&#xa;                </mxCell>&#xa;                <mxCell id="xH1HKrCOgvH4H9pcXVL0-21" value="insurance_companies" style="shape=table;startSize=30;container=1;collapsible=1;childLayout=tableLayout;fixedRows=1;rowLines=0;fontStyle=1;align=center;resizeLast=1;fillColor=#FFB570;strokeColor=#000000;aspect=fixed;movable=1;resizable=1;rotatable=1;deletable=1;editable=1;connectable=1;" parent="1" vertex="1">&#xa;                    <mxGeometry x="-220" y="50" width="202" height="90" as="geometry"/>&#xa;                </mxCell>&#xa;                <mxCell id="xH1HKrCOgvH4H9pcXVL0-22" value="" style="shape=partialRectangle;collapsible=0;dropTarget=0;pointerEvents=0;fillColor=none;points=[[0,0.5],[1,0.5]];portConstraint=eastwest;top=0;left=0;right=0;bottom=1;" parent="xH1HKrCOgvH4H9pcXVL0-21" vertex="1">&#xa;                    <mxGeometry y="30" width="202" height="30" as="geometry"/>&#xa;                </mxCell>&#xa;                <mxCell id="xH1HKrCOgvH4H9pcXVL0-23" value="PK" style="shape=partialRectangle;overflow=hidden;connectable=0;fillColor=none;top=0;left=0;bottom=0;right=0;fontStyle=1;" parent="xH1HKrCOgvH4H9pcXVL0-22" vertex="1">&#xa;                    <mxGeometry width="30" height="30" as="geometry">&#xa;                        <mxRectangle width="30" height="30" as="alternateBounds"/>&#xa;                    </mxGeometry>&#xa;                </mxCell>&#xa;                <mxCell id="xH1HKrCOgvH4H9pcXVL0-24" value="id_insurance_company" style="shape=partialRectangle;overflow=hidden;connectable=0;fillColor=none;top=0;left=0;bottom=0;right=0;align=left;spacingLeft=6;fontStyle=5;" parent="xH1HKrCOgvH4H9pcXVL0-22" vertex="1">&#xa;                    <mxGeometry x="30" width="172" height="30" as="geometry">&#xa;                        <mxRectangle width="172" height="30" as="alternateBounds"/>&#xa;                    </mxGeometry>&#xa;                </mxCell>&#xa;                <mxCell id="xH1HKrCOgvH4H9pcXVL0-25" style="shape=partialRectangle;collapsible=0;dropTarget=0;pointerEvents=0;fillColor=none;points=[[0,0.5],[1,0.5]];portConstraint=eastwest;top=0;left=0;right=0;bottom=0;" parent="xH1HKrCOgvH4H9pcXVL0-21" vertex="1">&#xa;                    <mxGeometry y="60" width="202" height="30" as="geometry"/>&#xa;                </mxCell>&#xa;                <mxCell id="xH1HKrCOgvH4H9pcXVL0-26" style="shape=partialRectangle;overflow=hidden;connectable=0;fillColor=none;top=0;left=0;bottom=0;right=0;" parent="xH1HKrCOgvH4H9pcXVL0-25" vertex="1">&#xa;                    <mxGeometry width="30" height="30" as="geometry">&#xa;                        <mxRectangle width="30" height="30" as="alternateBounds"/>&#xa;                    </mxGeometry>&#xa;                </mxCell>&#xa;                <mxCell id="xH1HKrCOgvH4H9pcXVL0-27" value="insurance_company" style="shape=partialRectangle;overflow=hidden;connectable=0;fillColor=none;top=0;left=0;bottom=0;right=0;align=left;spacingLeft=6;fontStyle=4" parent="xH1HKrCOgvH4H9pcXVL0-25" vertex="1">&#xa;                    <mxGeometry x="30" width="172" height="30" as="geometry">&#xa;                        <mxRectangle width="172" height="30" as="alternateBounds"/>&#xa;                    </mxGeometry>&#xa;                </mxCell>&#xa;                <mxCell id="xH1HKrCOgvH4H9pcXVL0-31" value="n:1" style="endArrow=classic;html=1;rounded=0;fontSize=15;entryX=0.787;entryY=0.967;entryDx=0;entryDy=0;entryPerimeter=0;exitX=0.797;exitY=0.011;exitDx=0;exitDy=0;exitPerimeter=0;" parent="1" source="igEpRSdW23LCRPxDGEHG-33" target="xH1HKrCOgvH4H9pcXVL0-25" edge="1">&#xa;                    <mxGeometry width="50" height="50" relative="1" as="geometry">&#xa;                        <mxPoint x="-141" y="220" as="sourcePoint"/>&#xa;                        <mxPoint x="-510" y="190" as="targetPoint"/>&#xa;                    </mxGeometry>&#xa;                </mxCell>&#xa;                <mxCell id="xH1HKrCOgvH4H9pcXVL0-35" value="brands" style="shape=table;startSize=30;container=1;collapsible=1;childLayout=tableLayout;fixedRows=1;rowLines=0;fontStyle=1;align=center;resizeLast=1;fillColor=#FFB570;strokeColor=#000000;aspect=fixed;movable=1;resizable=1;rotatable=1;deletable=1;editable=1;connectable=1;" parent="1" vertex="1">&#xa;                    <mxGeometry x="-800" y="80" width="202" height="120" as="geometry"/>&#xa;                </mxCell>&#xa;                <mxCell id="xH1HKrCOgvH4H9pcXVL0-36" value="" style="shape=partialRectangle;collapsible=0;dropTarget=0;pointerEvents=0;fillColor=none;points=[[0,0.5],[1,0.5]];portConstraint=eastwest;top=0;left=0;right=0;bottom=1;" parent="xH1HKrCOgvH4H9pcXVL0-35" vertex="1">&#xa;                    <mxGeometry y="30" width="202" height="30" as="geometry"/>&#xa;                </mxCell>&#xa;                <mxCell id="xH1HKrCOgvH4H9pcXVL0-37" value="PK" style="shape=partialRectangle;overflow=hidden;connectable=0;fillColor=none;top=0;left=0;bottom=0;right=0;fontStyle=1;" parent="xH1HKrCOgvH4H9pcXVL0-36" vertex="1">&#xa;                    <mxGeometry width="30" height="30" as="geometry">&#xa;                        <mxRectangle width="30" height="30" as="alternateBounds"/>&#xa;                    </mxGeometry>&#xa;                </mxCell>&#xa;                <mxCell id="xH1HKrCOgvH4H9pcXVL0-38" value="id_brand" style="shape=partialRectangle;overflow=hidden;connectable=0;fillColor=none;top=0;left=0;bottom=0;right=0;align=left;spacingLeft=6;fontStyle=5;" parent="xH1HKrCOgvH4H9pcXVL0-36" vertex="1">&#xa;                    <mxGeometry x="30" width="172" height="30" as="geometry">&#xa;                        <mxRectangle width="172" height="30" as="alternateBounds"/>&#xa;                    </mxGeometry>&#xa;                </mxCell>&#xa;                <mxCell id="xH1HKrCOgvH4H9pcXVL0-39" style="shape=partialRectangle;collapsible=0;dropTarget=0;pointerEvents=0;fillColor=none;points=[[0,0.5],[1,0.5]];portConstraint=eastwest;top=0;left=0;right=0;bottom=0;" parent="xH1HKrCOgvH4H9pcXVL0-35" vertex="1">&#xa;                    <mxGeometry y="60" width="202" height="30" as="geometry"/>&#xa;                </mxCell>&#xa;                <mxCell id="xH1HKrCOgvH4H9pcXVL0-40" value="FK" style="shape=partialRectangle;overflow=hidden;connectable=0;fillColor=none;top=0;left=0;bottom=0;right=0;" parent="xH1HKrCOgvH4H9pcXVL0-39" vertex="1">&#xa;                    <mxGeometry width="30" height="30" as="geometry">&#xa;                        <mxRectangle width="30" height="30" as="alternateBounds"/>&#xa;                    </mxGeometry>&#xa;                </mxCell>&#xa;                <mxCell id="xH1HKrCOgvH4H9pcXVL0-41" value="id_company" style="shape=partialRectangle;overflow=hidden;connectable=0;fillColor=none;top=0;left=0;bottom=0;right=0;align=left;spacingLeft=6;fontStyle=4" parent="xH1HKrCOgvH4H9pcXVL0-39" vertex="1">&#xa;                    <mxGeometry x="30" width="172" height="30" as="geometry">&#xa;                        <mxRectangle width="172" height="30" as="alternateBounds"/>&#xa;                    </mxGeometry>&#xa;                </mxCell>&#xa;                <mxCell id="xH1HKrCOgvH4H9pcXVL0-42" style="shape=partialRectangle;collapsible=0;dropTarget=0;pointerEvents=0;fillColor=none;points=[[0,0.5],[1,0.5]];portConstraint=eastwest;top=0;left=0;right=0;bottom=0;" parent="xH1HKrCOgvH4H9pcXVL0-35" vertex="1">&#xa;                    <mxGeometry y="90" width="202" height="30" as="geometry"/>&#xa;                </mxCell>&#xa;                <mxCell id="xH1HKrCOgvH4H9pcXVL0-43" style="shape=partialRectangle;overflow=hidden;connectable=0;fillColor=none;top=0;left=0;bottom=0;right=0;" parent="xH1HKrCOgvH4H9pcXVL0-42" vertex="1">&#xa;                    <mxGeometry width="30" height="30" as="geometry">&#xa;                        <mxRectangle width="30" height="30" as="alternateBounds"/>&#xa;                    </mxGeometry>&#xa;                </mxCell>&#xa;                <mxCell id="xH1HKrCOgvH4H9pcXVL0-44" value="brand" style="shape=partialRectangle;overflow=hidden;connectable=0;fillColor=none;top=0;left=0;bottom=0;right=0;align=left;spacingLeft=6;fontStyle=4" parent="xH1HKrCOgvH4H9pcXVL0-42" vertex="1">&#xa;                    <mxGeometry x="30" width="172" height="30" as="geometry">&#xa;                        <mxRectangle width="172" height="30" as="alternateBounds"/>&#xa;                    </mxGeometry>&#xa;                </mxCell>&#xa;                <mxCell id="xH1HKrCOgvH4H9pcXVL0-45" value="" style="endArrow=none;html=1;rounded=0;fontSize=15;exitX=-0.01;exitY=-0.1;exitDx=0;exitDy=0;exitPerimeter=0;entryX=0.99;entryY=-0.133;entryDx=0;entryDy=0;entryPerimeter=0;" parent="xH1HKrCOgvH4H9pcXVL0-35" source="xH1HKrCOgvH4H9pcXVL0-42" target="xH1HKrCOgvH4H9pcXVL0-42" edge="1">&#xa;                    <mxGeometry width="50" height="50" relative="1" as="geometry">&#xa;                        <mxPoint x="240" y="220" as="sourcePoint"/>&#xa;                        <mxPoint x="290" y="170" as="targetPoint"/>&#xa;                    </mxGeometry>&#xa;                </mxCell>&#xa;                <mxCell id="xH1HKrCOgvH4H9pcXVL0-46" value="1:n" style="endArrow=classic;html=1;rounded=0;fontSize=15;" parent="1" edge="1">&#xa;                    <mxGeometry width="50" height="50" relative="1" as="geometry">&#xa;                        <mxPoint x="-720" y="280" as="sourcePoint"/>&#xa;                        <mxPoint x="-720" y="200" as="targetPoint"/>&#xa;                    </mxGeometry>&#xa;                </mxCell>&#xa;                <mxCell id="xH1HKrCOgvH4H9pcXVL0-47" value="companies" style="shape=table;startSize=30;container=1;collapsible=1;childLayout=tableLayout;fixedRows=1;rowLines=0;fontStyle=1;align=center;resizeLast=1;fillColor=#CCFF99;strokeColor=#000000;aspect=fixed;movable=1;resizable=1;rotatable=1;deletable=1;editable=1;connectable=1;" parent="1" vertex="1">&#xa;                    <mxGeometry x="-530" y="80" width="202" height="90" as="geometry"/>&#xa;                </mxCell>&#xa;                <mxCell id="xH1HKrCOgvH4H9pcXVL0-48" value="" style="shape=partialRectangle;collapsible=0;dropTarget=0;pointerEvents=0;fillColor=none;points=[[0,0.5],[1,0.5]];portConstraint=eastwest;top=0;left=0;right=0;bottom=1;" parent="xH1HKrCOgvH4H9pcXVL0-47" vertex="1">&#xa;                    <mxGeometry y="30" width="202" height="30" as="geometry"/>&#xa;                </mxCell>&#xa;                <mxCell id="xH1HKrCOgvH4H9pcXVL0-49" value="PK" style="shape=partialRectangle;overflow=hidden;connectable=0;fillColor=none;top=0;left=0;bottom=0;right=0;fontStyle=1;" parent="xH1HKrCOgvH4H9pcXVL0-48" vertex="1">&#xa;                    <mxGeometry width="30" height="30" as="geometry">&#xa;                        <mxRectangle width="30" height="30" as="alternateBounds"/>&#xa;                    </mxGeometry>&#xa;                </mxCell>&#xa;                <mxCell id="xH1HKrCOgvH4H9pcXVL0-50" value="id_company" style="shape=partialRectangle;overflow=hidden;connectable=0;fillColor=none;top=0;left=0;bottom=0;right=0;align=left;spacingLeft=6;fontStyle=5;" parent="xH1HKrCOgvH4H9pcXVL0-48" vertex="1">&#xa;                    <mxGeometry x="30" width="172" height="30" as="geometry">&#xa;                        <mxRectangle width="172" height="30" as="alternateBounds"/>&#xa;                    </mxGeometry>&#xa;                </mxCell>&#xa;                <mxCell id="xH1HKrCOgvH4H9pcXVL0-51" style="shape=partialRectangle;collapsible=0;dropTarget=0;pointerEvents=0;fillColor=none;points=[[0,0.5],[1,0.5]];portConstraint=eastwest;top=0;left=0;right=0;bottom=0;" parent="xH1HKrCOgvH4H9pcXVL0-47" vertex="1">&#xa;                    <mxGeometry y="60" width="202" height="30" as="geometry"/>&#xa;                </mxCell>&#xa;                <mxCell id="xH1HKrCOgvH4H9pcXVL0-52" style="shape=partialRectangle;overflow=hidden;connectable=0;fillColor=none;top=0;left=0;bottom=0;right=0;" parent="xH1HKrCOgvH4H9pcXVL0-51" vertex="1">&#xa;                    <mxGeometry width="30" height="30" as="geometry">&#xa;                        <mxRectangle width="30" height="30" as="alternateBounds"/>&#xa;                    </mxGeometry>&#xa;                </mxCell>&#xa;                <mxCell id="xH1HKrCOgvH4H9pcXVL0-53" value="company" style="shape=partialRectangle;overflow=hidden;connectable=0;fillColor=none;top=0;left=0;bottom=0;right=0;align=left;spacingLeft=6;fontStyle=4" parent="xH1HKrCOgvH4H9pcXVL0-51" vertex="1">&#xa;                    <mxGeometry x="30" width="172" height="30" as="geometry">&#xa;                        <mxRectangle width="172" height="30" as="alternateBounds"/>&#xa;                    </mxGeometry>&#xa;                </mxCell>&#xa;                <mxCell id="xH1HKrCOgvH4H9pcXVL0-54" value="1:n" style="endArrow=classic;html=1;rounded=0;fontSize=15;entryX=0;entryY=0.033;entryDx=0;entryDy=0;entryPerimeter=0;exitX=1.015;exitY=0;exitDx=0;exitDy=0;exitPerimeter=0;" parent="1" source="xH1HKrCOgvH4H9pcXVL0-39" target="xH1HKrCOgvH4H9pcXVL0-51" edge="1">&#xa;                    <mxGeometry width="50" height="50" relative="1" as="geometry">&#xa;                        <mxPoint x="-710" y="290" as="sourcePoint"/>&#xa;                        <mxPoint x="-710" y="210" as="targetPoint"/>&#xa;                    </mxGeometry>&#xa;                </mxCell>&#xa;                <mxCell id="igEpRSdW23LCRPxDGEHG-61" value="1:1" style="endArrow=classic;html=1;rounded=0;entryX=1;entryY=0.5;entryDx=0;entryDy=0;fontSize=15;" parent="1" target="V-v0umeBwk4va9q0CDBw-5" edge="1">&#xa;                    <mxGeometry width="50" height="50" relative="1" as="geometry">&#xa;                        <mxPoint x="-220" y="265" as="sourcePoint"/>&#xa;                        <mxPoint x="-230" y="140" as="targetPoint"/>&#xa;                    </mxGeometry>&#xa;                </mxCell>&#xa;            </root>&#xa;        </mxGraphModel>&#xa;    </diagram>&#xa;</mxfile>